<svg width="177" height="34" viewBox="0 0 177 34" fill="none" xmlns="http://www.w3.org/2000/svg">
<path d="M17.4028 32.625C15.1111 32.625 12.9699 32.2083 10.9792 31.375C8.98843 30.5185 7.22917 29.3495 5.70139 27.8681C4.19676 26.3866 3.0162 24.662 2.15972 22.6944C1.30324 20.7269 0.875 18.6204 0.875 16.375C0.875 14.1296 1.30324 12.0231 2.15972 10.0556C3.0162 8.08796 4.19676 6.36343 5.70139 4.88194C7.22917 3.40046 8.98843 2.24305 10.9792 1.40972C12.9699 0.553241 15.1111 0.125001 17.4028 0.125001C19.463 0.125001 21.4074 0.460648 23.2361 1.13194C25.0648 1.80324 26.6968 2.75231 28.1319 3.97917L26.3611 11.2708C25.5046 9.83565 24.3241 8.63194 22.8194 7.65972C21.3148 6.66435 19.5787 6.16667 17.6111 6.16667C15.7361 6.16667 14.0347 6.62963 12.5069 7.55556C11.0023 8.45833 9.81019 9.68519 8.93056 11.2361C8.05093 12.7639 7.61111 14.4769 7.61111 16.375C7.61111 18.25 8.05093 19.963 8.93056 21.5139C9.81019 23.0648 11.0023 24.3032 12.5069 25.2292C14.0347 26.1319 15.7361 26.5833 17.6111 26.5833C19.5556 26.5833 21.2801 26.0972 22.7847 25.125C24.3125 24.1296 25.5046 22.9144 26.3611 21.4792L28.1319 28.7708C26.6736 29.9745 25.0301 30.9236 23.2014 31.6181C21.3958 32.2894 19.463 32.625 17.4028 32.625ZM40.8913 32.5556C38.97 32.5556 37.2223 32.0579 35.6482 31.0625C34.0741 30.0671 32.8126 28.7477 31.8635 27.1042C30.9376 25.4375 30.4746 23.5972 30.4746 21.5833C30.4746 19.5694 30.9376 17.7292 31.8635 16.0625C32.8126 14.3958 34.0741 13.0764 35.6482 12.1042C37.2223 11.1088 38.97 10.6111 40.8913 10.6111C42.2339 10.6111 43.4607 10.8542 44.5718 11.3403C45.6829 11.8032 46.632 12.4514 47.4191 13.2847V11.1667H52.6274V32H47.4191V29.8819C46.632 30.7153 45.6829 31.375 44.5718 31.8611C43.4607 32.3241 42.2339 32.5556 40.8913 32.5556ZM41.6204 27.2431C42.639 27.2431 43.5649 26.9884 44.3982 26.4792C45.2316 25.9699 45.8913 25.287 46.3774 24.4306C46.8866 23.5741 47.1413 22.625 47.1413 21.5833C47.1413 20.5417 46.8866 19.5926 46.3774 18.7361C45.8913 17.8796 45.2316 17.1968 44.3982 16.6875C43.5649 16.1782 42.639 15.9236 41.6204 15.9236C40.6019 15.9236 39.676 16.1782 38.8427 16.6875C38.0093 17.1968 37.338 17.8796 36.8288 18.7361C36.3427 19.5926 36.0996 20.5417 36.0996 21.5833C36.0996 22.625 36.3427 23.5741 36.8288 24.4306C37.338 25.287 38.0093 25.9699 38.8427 26.4792C39.676 26.9884 40.6019 27.2431 41.6204 27.2431ZM59.6304 32V15.9583H55.7415V11.1667H59.7346V4.22222H65.5679V11.1667H69.6999V15.9583H65.6721V32H59.6304Z" fill="#111111"/>
<path d="M73.8665 32V0.75H80.3249V26.375H89.6999V32H73.8665ZM102.857 32.6944C100.797 32.6944 98.9107 32.1968 97.1977 31.2014C95.4847 30.206 94.119 28.8634 93.1005 27.1736C92.1051 25.4838 91.6074 23.6204 91.6074 21.5833C91.6074 19.5231 92.1051 17.6597 93.1005 15.9931C94.119 14.3032 95.4847 12.9606 97.1977 11.9653C98.9107 10.9699 100.797 10.4722 102.857 10.4722C104.941 10.4722 106.827 10.9699 108.517 11.9653C110.23 12.9606 111.584 14.3032 112.58 15.9931C113.598 17.6597 114.107 19.5231 114.107 21.5833C114.107 23.6204 113.598 25.4838 112.58 27.1736C111.584 28.8634 110.23 30.206 108.517 31.2014C106.827 32.1968 104.941 32.6944 102.857 32.6944ZM102.857 27.2778C103.899 27.2778 104.837 27.0231 105.67 26.5139C106.526 26.0046 107.198 25.3218 107.684 24.4653C108.193 23.5856 108.448 22.625 108.448 21.5833C108.448 20.5185 108.193 19.5579 107.684 18.7014C107.198 17.8449 106.526 17.162 105.67 16.6528C104.837 16.1435 103.899 15.8889 102.857 15.8889C101.816 15.8889 100.867 16.1435 100.01 16.6528C99.1769 17.162 98.5056 17.8449 97.9963 18.7014C97.5102 19.5579 97.2671 20.5185 97.2671 21.5833C97.2671 22.625 97.5102 23.5856 97.9963 24.4653C98.5056 25.3218 99.1769 26.0046 100.01 26.5139C100.867 27.0231 101.816 27.2778 102.857 27.2778ZM126.306 33.0417L114.882 11.1667H121.584L124.847 17.8681C125.148 18.4468 125.426 19.0255 125.681 19.6042C125.935 20.1597 126.19 20.7963 126.445 21.5139C126.699 20.7963 126.954 20.1597 127.209 19.6042C127.463 19.0255 127.741 18.4468 128.042 17.8681L131.306 11.1667H137.729L126.306 33.0417ZM149.981 32.6944C147.643 32.6944 145.583 32.2083 143.8 31.2361C142.018 30.2639 140.629 28.9329 139.634 27.2431C138.638 25.5301 138.141 23.5741 138.141 21.375C138.141 19.2685 138.627 17.4051 139.599 15.7847C140.571 14.1412 141.879 12.8449 143.523 11.8958C145.189 10.9468 147.03 10.4722 149.043 10.4722C151.104 10.4722 152.944 10.9468 154.564 11.8958C156.185 12.8218 157.458 14.0949 158.384 15.7153C159.333 17.3356 159.807 19.1759 159.807 21.2361V23.3542H147.099C146.52 23.3542 145.965 23.3194 145.432 23.25C144.9 23.1806 144.367 23.0995 143.835 23.0069C144.113 24.3958 144.796 25.5301 145.884 26.4097C146.995 27.2662 148.407 27.6944 150.12 27.6944C151.439 27.6944 152.62 27.4282 153.661 26.8958C154.726 26.3634 155.594 25.7037 156.266 24.9167L157.585 30.3333C156.543 31.1204 155.363 31.7106 154.043 32.1042C152.747 32.4977 151.393 32.6944 149.981 32.6944ZM143.696 19.3611C144.854 19.1065 145.988 18.9792 147.099 18.9792H150.78C151.428 18.9792 152.041 19.0023 152.62 19.0486C153.198 19.0949 153.742 19.1759 154.252 19.2917C153.905 18.0417 153.268 17.0579 152.342 16.3403C151.439 15.6227 150.317 15.2639 148.974 15.2639C147.701 15.2639 146.59 15.6343 145.641 16.375C144.715 17.0926 144.067 18.088 143.696 19.3611ZM163.157 32V11.1667H168.574V14.7431C169.291 13.5394 170.194 12.6134 171.282 11.9653C172.393 11.294 173.689 10.9583 175.171 10.9583L176.49 16.3056C176.05 16.1667 175.553 16.0972 174.997 16.0972C173.261 16.0972 171.861 16.6644 170.796 17.7986C169.731 18.9097 169.199 20.5069 169.199 22.5903V32H163.157Z" fill="#5675F7"/>
</svg>
